<?xml version="1.0" standalone="no"?>
<!DOCTYPE svg PUBLIC "-//W3C//DTD SVG 20010904//EN"
 "http://www.w3.org/TR/2001/REC-SVG-20010904/DTD/svg10.dtd">
<svg version="1.0" xmlns="http://www.w3.org/2000/svg"
 width="300.000000pt" height="300.000000pt" viewBox="0 0 300.000000 300.000000"
 preserveAspectRatio="xMidYMid meet">
<metadata>
Created by potrace 1.10, written by Peter Selinger 2001-2011
</metadata>
<g transform="translate(0.000000,300.000000) scale(0.100000,-0.100000)"
fill="#113F67" stroke="none">
<path d="M80 2132 c-42 -21 -80 -75 -80 -114 0 -74 0 -74 737 -627 411 -309
717 -531 734 -535 16 -3 42 -3 58 0 32 7 1401 1027 1438 1072 46 55 42 125
-11 178 -43 43 -93 53 -143 27 -21 -10 -325 -234 -675 -497 l-638 -478 -637
478 c-351 263 -654 486 -673 496 -43 23 -66 23 -110 0z"/>
</g>
</svg>
